<svg width="100" height="24" viewBox="0 0 100 24" fill="none" xmlns="http://www.w3.org/2000/svg">
<g clip-path="url(#clip0_2861_7669)">
<path d="M30.1478 12.4052L36.4985 3.98962H39.7389L34.5453 10.8278L39.8026 20.0104H36.6259L32.7407 13.1939L30.1452 16.59V20.0077H27.3984V3.98962H30.1452V12.4052H30.1478Z" fill="black"/>
<path d="M40.6862 16.9206C40.6862 14.9258 42.1034 13.6764 44.614 13.4785L47.7906 13.2373V12.9961C47.7906 11.5271 46.9334 10.9362 45.6012 10.9362C44.0566 10.9362 43.1968 11.5948 43.1968 12.7332H40.9649C40.9649 10.3887 42.8544 8.85468 45.7286 8.85468C48.6027 8.85468 50.341 10.4321 50.341 13.4351V20.0104H48.0454L47.8517 18.4113C47.4005 19.528 45.9621 20.295 44.3114 20.295C42.0583 20.295 40.6836 18.9588 40.6836 16.9206H40.6862ZM47.8119 15.6278V15.0586L45.6012 15.2348C43.9691 15.3893 43.3481 15.9368 43.3481 16.8122C43.3481 17.7988 43.993 18.2812 45.1713 18.2812C46.7795 18.2812 47.8119 17.2947 47.8119 15.6305V15.6278Z" fill="black"/>
<path d="M53.754 20.0104V11.4186H51.7158V9.18259H53.754V5.80823H56.3707V9.18259H58.4301V11.4186H56.3707V20.0104H53.754Z" fill="black"/>
<path d="M59.529 16.9206C59.529 14.9258 60.9462 13.6764 63.4567 13.4785L66.6334 13.2373V12.9961C66.6334 11.5271 65.7762 10.9362 64.444 10.9362C62.8994 10.9362 62.0396 11.5948 62.0396 12.7332H59.8077C59.8077 10.3887 61.6972 8.85468 64.5714 8.85468C67.4455 8.85468 69.1838 10.4321 69.1838 13.4351V20.0104H66.8882L66.6944 18.4113C66.2433 19.528 64.8049 20.295 63.1542 20.295C60.9011 20.295 59.5264 18.9588 59.5264 16.9206H59.529ZM66.6546 15.6278V15.0586L64.444 15.2348C62.8118 15.3893 62.1908 15.9368 62.1908 16.8122C62.1908 17.7988 62.8357 18.2812 64.014 18.2812C65.6223 18.2812 66.6546 17.2947 66.6546 15.6305V15.6278Z" fill="black"/>
<path d="M71.8027 20.0104V3.70502H74.3982V20.0104H71.8027Z" fill="black"/>
<path d="M82.1904 8.87903C85.4732 8.87903 87.8564 11.2018 87.8564 14.5761C87.8564 17.9505 85.4732 20.2733 82.1904 20.2733C78.9076 20.2733 76.5244 17.9505 76.5244 14.5761C76.5244 11.2018 78.9076 8.87903 82.1904 8.87903ZM82.1904 17.8855C83.9924 17.8855 85.237 16.5493 85.237 14.5761C85.237 12.603 83.9924 11.2668 82.1904 11.2668C80.3884 11.2668 79.1438 12.603 79.1438 14.5761C79.1438 16.5493 80.3884 17.8855 82.1904 17.8855Z" fill="black"/>
<path d="M89.9365 20.0104V9.18531H92.3621L92.5771 10.5893C93.2432 9.49429 94.5303 8.85736 95.9687 8.85736C98.6306 8.85736 100.003 10.5459 100.003 13.3511V20.0131H97.3859V13.9853C97.3859 12.1667 96.5048 11.2885 95.154 11.2885C93.5458 11.2885 92.5585 12.4269 92.5585 14.1805V20.0104H89.9418H89.9365Z" fill="black"/>
<path d="M15.6682 15.9991H7.83398V24H15.6682V15.9991Z" fill="#19D89F"/>
<path d="M7.83419 0L0 8.0009V16.0018H7.83419L15.6657 8.0009V0H7.83419Z" fill="black"/>
</g>
<defs>
<clipPath id="clip0_2861_7669">
<rect width="100" height="24" fill="white"/>
</clipPath>
</defs>
</svg>
